<?xml version="1.0" standalone="no"?>
<!DOCTYPE svg PUBLIC "-//W3C//DTD SVG 20010904//EN"
 "http://www.w3.org/TR/2001/REC-SVG-20010904/DTD/svg10.dtd">
<svg version="1.0" xmlns="http://www.w3.org/2000/svg"
 width="664.000000pt" height="664.000000pt" viewBox="0 0 664.000000 664.000000"
 preserveAspectRatio="xMidYMid meet">
<metadata>
Created by potrace 1.11, written by Peter Selinger 2001-2013
</metadata>
<g transform="translate(0.000000,664.000000) scale(0.100000,-0.100000)"
fill="#000000" stroke="none">
<path d="M5142 6537 c-12 -31 -24 -69 -28 -84 -4 -15 -12 -37 -17 -48 -6 -11
-13 -31 -15 -45 -2 -14 -14 -63 -27 -110 -42 -151 -73 -355 -75 -500 l-1 -65
-35 90 c-72 185 -214 455 -239 455 -11 0 -21 20 -57 110 -10 24 -11 24 -18 4
-11 -28 -11 -92 0 -134 5 -19 12 -53 15 -75 3 -22 10 -65 15 -95 17 -99 19
-115 26 -155 14 -94 35 -177 60 -239 27 -69 94 -172 125 -194 11 -7 19 -20 19
-28 0 -8 7 -14 15 -14 8 0 19 -9 25 -19 9 -18 -2 -28 -102 -97 -181 -124 -308
-225 -388 -309 -110 -114 -180 -185 -182 -185 -2 0 -3 55 -3 123 -1 151 -16
199 -117 374 -73 128 -76 142 -25 143 22 0 22 -3 -15 82 -95 217 -255 352
-481 407 -84 21 -254 26 -324 11 -21 -5 -49 -11 -63 -13 -38 -8 -140 -47 -190
-75 -155 -86 -280 -215 -360 -371 -12 -24 -33 -81 -47 -125 -22 -70 -26 -99
-25 -216 l0 -136 -51 0 c-171 -2 -356 -49 -494 -125 -84 -47 -120 -74 -195
-151 -101 -102 -181 -233 -241 -396 l-23 -63 -50 39 c-27 22 -68 49 -91 60
-138 71 -365 86 -533 36 -151 -45 -278 -119 -383 -226 -152 -154 -210 -313
-200 -547 3 -77 8 -121 13 -128 2 -2 3 -6 4 -10 13 -68 58 -192 88 -241 21
-34 38 -69 38 -76 0 -8 17 -30 37 -50 43 -42 80 -48 85 -13 3 19 9 13 48 -38
24 -33 90 -105 145 -160 78 -78 117 -108 175 -137 114 -57 207 -79 340 -83
152 -5 246 14 458 94 46 17 89 31 96 31 7 0 18 -12 25 -27 31 -67 137 -174
222 -221 69 -38 190 -70 271 -72 l27 0 -3 -67 c-2 -38 -11 -86 -19 -108 -8
-22 -27 -69 -40 -105 -51 -132 -79 -282 -78 -418 1 -307 112 -573 403 -970 42
-57 62 -59 56 -6 -2 19 -2 34 0 34 3 0 26 -13 52 -29 56 -35 137 -73 203 -95
42 -14 67 -21 162 -42 38 -9 230 -5 285 6 30 5 80 17 110 26 36 11 56 12 58 5
2 -6 14 -26 28 -46 13 -20 24 -38 24 -40 0 -8 167 -252 209 -305 65 -82 173
-200 192 -211 13 -7 48 5 136 47 65 31 150 71 188 89 39 18 124 59 190 90 209
99 223 105 241 98 13 -5 15 -3 9 8 -5 8 -23 37 -39 64 -17 28 -36 59 -43 70
-6 11 -48 80 -93 153 -45 74 -80 135 -78 136 2 1 46 23 99 49 150 74 172 104
117 166 -34 38 -40 44 -82 95 -53 63 -91 78 -186 72 -41 -3 -81 -2 -87 2 -7 4
-30 55 -52 112 -67 180 -136 358 -211 545 -40 99 -78 197 -86 218 l-13 37 82
83 c75 74 92 99 141 207 12 25 53 45 146 72 25 7 46 20 48 28 1 8 -18 36 -43
62 -25 26 -45 54 -45 61 0 8 -15 20 -32 28 -18 7 -45 26 -59 43 -26 30 -28 30
-125 32 -54 1 -101 2 -103 3 -10 3 180 205 269 284 97 87 198 153 339 219 203
95 246 118 302 158 l53 38 91 -93 c90 -93 210 -182 314 -234 55 -28 185 -63
286 -77 l50 -7 -30 29 c-63 61 -164 142 -265 214 -148 103 -320 233 -320 240
0 6 68 41 318 164 126 63 205 113 272 175 l45 42 -95 -5 c-52 -3 -108 -8 -125
-11 -88 -15 -181 -38 -190 -46 -5 -5 -16 -9 -25 -9 -31 0 -211 -101 -257 -144
-26 -25 -48 -44 -50 -42 -1 1 4 31 11 67 22 103 18 276 -9 420 -24 128 -90
407 -98 415 -10 10 -57 -117 -72 -196 -22 -116 -26 -169 -27 -350 -2 -141 0
-159 20 -199 12 -25 22 -50 22 -56 0 -10 41 -83 83 -146 17 -26 17 -28 -5 -52
-13 -14 -72 -47 -133 -73 -146 -62 -218 -99 -287 -145 -31 -22 -61 -39 -67
-39 -5 0 -11 -3 -13 -8 -3 -7 -506 -340 -545 -361 -25 -13 -29 -8 -28 34 9
276 177 823 381 1240 101 205 179 319 397 580 47 55 226 244 272 286 55 49
150 129 155 129 3 0 18 -26 34 -58 83 -160 176 -271 312 -368 72 -52 231 -117
327 -134 37 -7 75 -20 84 -28 14 -15 15 -14 8 8 -30 98 -120 225 -243 347
-189 187 -290 251 -461 295 -17 5 138 98 161 98 9 0 42 -19 74 -43 123 -91
303 -172 424 -192 19 -3 42 -8 50 -10 33 -9 123 -16 267 -20 l152 -5 -8 23
c-31 81 -129 217 -194 268 -89 71 -180 108 -309 124 -106 14 -330 5 -384 -15
-12 -5 -24 -7 -27 -4 -2 2 -17 0 -33 -6 -22 -8 -14 3 36 47 68 59 228 219 245
244 61 90 99 152 101 163 1 8 16 42 32 77 17 35 40 89 52 119 l21 55 -39 -45
c-28 -32 -64 -57 -123 -85 -64 -30 -96 -54 -145 -105 -145 -154 -180 -209
-254 -400 -29 -75 -37 -87 -69 -101 -20 -9 -67 -31 -106 -49 -133 -62 -135
-63 -135 -43 1 35 38 101 55 100 13 -2 28 26 62 113 94 243 99 276 97 671 -2
307 -8 347 -42 256z"/>
</g>
</svg>
